<svg xmlns="http://www.w3.org/2000/svg" xmlns:xlink="http://www.w3.org/1999/xlink" width="2000" zoomAndPan="magnify" viewBox="0 0 1500 1499.999933" height="2000" preserveAspectRatio="xMidYMid meet" version="1.0"><defs><g/><clipPath id="3cc0d7cbb2"><path d="M 357 612 L 681 612 L 681 897 L 357 897 Z M 357 612 " clip-rule="nonzero"/></clipPath><clipPath id="da164611d9"><path d="M 290.816406 735.222656 L 518.859375 507.183594 L 746.898438 735.222656 L 518.859375 963.265625 Z M 290.816406 735.222656 " clip-rule="nonzero"/></clipPath><clipPath id="98439416bd"><path d="M 290.816406 735.222656 L 518.859375 507.183594 L 746.898438 735.222656 L 518.859375 963.265625 Z M 290.816406 735.222656 " clip-rule="nonzero"/></clipPath></defs><g fill="#160f07" fill-opacity="1"><g transform="translate(116.042294, 887.008896)"><g><path d="M 121.96875 0 L 20.5 0 L 20.5 -272.484375 L 117.265625 -272.484375 C 145.929688 -272.484375 167.09375 -267.21875 180.75 -256.6875 C 194.414062 -246.164062 201.25 -229.925781 201.25 -207.96875 L 201.25 -206.296875 C 201.25 -189.941406 197.21875 -176.390625 189.15625 -165.640625 C 181.09375 -154.890625 169.78125 -147.273438 155.21875 -142.796875 C 173.144531 -139.429688 187.144531 -132.148438 197.21875 -120.953125 C 207.300781 -109.753906 212.34375 -95.195312 212.34375 -77.28125 L 212.34375 -75.265625 C 212.34375 -49.273438 204.109375 -30.234375 187.640625 -18.140625 C 171.179688 -6.046875 149.289062 0 121.96875 0 Z M 52.75 -242.578125 L 52.75 -155.890625 L 111.203125 -155.890625 C 129.128906 -155.890625 143.1875 -159.472656 153.375 -166.640625 C 163.570312 -173.816406 168.671875 -184.125 168.671875 -197.5625 L 168.671875 -199.90625 C 168.671875 -215.132812 164.078125 -226.050781 154.890625 -232.65625 C 145.703125 -239.269531 132.375 -242.578125 114.90625 -242.578125 Z M 52.75 -125.65625 L 52.75 -30.234375 L 123.984375 -30.234375 C 141.898438 -30.234375 155.617188 -34.546875 165.140625 -43.171875 C 174.660156 -51.796875 179.421875 -63.835938 179.421875 -79.296875 L 179.421875 -81.984375 C 179.421875 -95.867188 174.210938 -106.617188 163.796875 -114.234375 C 153.378906 -121.847656 139.210938 -125.65625 121.296875 -125.65625 Z M 52.75 -125.65625 "/></g></g></g><g fill="#160f07" fill-opacity="1"><g transform="translate(343.175087, 887.008896)"><g/></g></g><g fill="#160f07" fill-opacity="1"><g transform="translate(403.988287, 887.008896)"><g/></g></g><g fill="#160f07" fill-opacity="1"><g transform="translate(464.801487, 887.008896)"><g/></g></g><g fill="#160f07" fill-opacity="1"><g transform="translate(525.614687, 887.008896)"><g/></g></g><g fill="#160f07" fill-opacity="1"><g transform="translate(586.427888, 887.008896)"><g/></g></g><g fill="#160f07" fill-opacity="1"><g transform="translate(647.2411, 887.008896)"><g/></g></g><g fill="#160f07" fill-opacity="1"><g transform="translate(708.061778, 887.008896)"><g><path d="M 78.625 0 L 45.359375 0 L 45.359375 -157.234375 L 9.40625 -157.234375 L 9.40625 -186.8125 L 45.359375 -186.8125 L 45.359375 -210.65625 C 45.359375 -232.832031 52.1875 -248.679688 65.84375 -258.203125 C 79.507812 -267.722656 97.546875 -272.484375 119.953125 -272.484375 L 152.875 -272.484375 L 152.875 -242.921875 L 119.953125 -242.921875 C 104.941406 -242.921875 94.300781 -240.007812 88.03125 -234.1875 C 81.757812 -228.363281 78.625 -220.519531 78.625 -210.65625 L 78.625 -186.8125 L 152.53125 -186.8125 L 152.53125 -157.234375 L 78.625 -157.234375 Z M 78.625 0 "/></g></g></g><g fill="#160f07" fill-opacity="1"><g transform="translate(873.366099, 887.008896)"><g><path d="M 78.625 0 L 45.359375 0 L 45.359375 -157.234375 L 9.40625 -157.234375 L 9.40625 -186.8125 L 45.359375 -186.8125 L 45.359375 -210.65625 C 45.359375 -232.832031 52.1875 -248.679688 65.84375 -258.203125 C 79.507812 -267.722656 97.546875 -272.484375 119.953125 -272.484375 L 152.875 -272.484375 L 152.875 -242.921875 L 119.953125 -242.921875 C 104.941406 -242.921875 94.300781 -240.007812 88.03125 -234.1875 C 81.757812 -228.363281 78.625 -220.519531 78.625 -210.65625 L 78.625 -186.8125 L 152.53125 -186.8125 L 152.53125 -157.234375 L 78.625 -157.234375 Z M 78.625 0 "/></g></g></g><g fill="#160f07" fill-opacity="1"><g transform="translate(1019.183306, 887.008896)"><g><path d="M 200.578125 -90.71875 L 200.578125 -83.328125 L 49.71875 -83.328125 C 52.1875 -66.972656 58.960938 -53.25 70.046875 -42.15625 C 81.140625 -31.070312 96.207031 -25.53125 115.25 -25.53125 C 128.457031 -25.53125 140.15625 -27.601562 150.34375 -31.75 C 160.539062 -35.894531 169.113281 -40.65625 176.0625 -46.03125 L 190.5 -19.484375 C 181.769531 -13.441406 171.128906 -8.007812 158.578125 -3.1875 C 146.035156 1.625 131.144531 4.03125 113.90625 4.03125 C 93.519531 4.03125 75.929688 -0.109375 61.140625 -8.390625 C 46.359375 -16.679688 34.9375 -28.21875 26.875 -43 C 18.8125 -57.789062 14.78125 -74.925781 14.78125 -94.40625 L 14.78125 -94.75 C 14.78125 -113.789062 18.53125 -130.703125 26.03125 -145.484375 C 33.539062 -160.265625 44.238281 -171.910156 58.125 -180.421875 C 72.007812 -188.929688 88.472656 -193.1875 107.515625 -193.1875 C 127.222656 -193.1875 143.960938 -188.929688 157.734375 -180.421875 C 171.515625 -171.910156 182.097656 -159.984375 189.484375 -144.640625 C 196.878906 -129.296875 200.578125 -111.320312 200.578125 -90.71875 Z M 107.171875 -163.625 C 91.492188 -163.625 78.726562 -158.75 68.875 -149 C 59.019531 -139.257812 52.75 -127.113281 50.0625 -112.5625 L 165.296875 -112.5625 C 163.285156 -126.664062 157.460938 -138.703125 147.828125 -148.671875 C 138.203125 -158.640625 124.648438 -163.625 107.171875 -163.625 Z M 107.171875 -163.625 "/></g></g></g><g fill="#160f07" fill-opacity="1"><g transform="translate(1234.885327, 887.008896)"><g><path d="M 53.75 0 L 20.5 0 L 20.5 -179.421875 C 32.363281 -182.554688 44.566406 -184.625 57.109375 -185.625 C 69.660156 -186.632812 79.96875 -187.140625 88.03125 -187.140625 L 122.640625 -187.140625 L 122.640625 -156.234375 L 94.40625 -156.234375 C 90.15625 -156.234375 85.285156 -156.007812 79.796875 -155.5625 C 74.304688 -155.113281 69.207031 -154.550781 64.5 -153.875 C 59.800781 -153.207031 56.21875 -152.425781 53.75 -151.53125 Z M 53.75 0 "/></g></g></g><g clip-path="url(#3cc0d7cbb2)"><g clip-path="url(#da164611d9)"><g clip-path="url(#98439416bd)"><path fill="#ff751f" d="M 398.757812 627.167969 L 411.027344 614.898438 C 414.472656 611.453125 420.117188 611.441406 423.558594 614.886719 L 469.8125 661.136719 C 473.253906 664.578125 473.265625 670.226562 469.8125 673.679688 L 457.542969 685.949219 C 454.085938 689.402344 448.453125 689.402344 445 685.949219 L 398.746094 639.699219 C 395.304688 636.257812 395.304688 630.621094 398.757812 627.167969 Z M 440.773438 726.441406 L 440.773438 743.800781 C 440.773438 748.6875 436.796875 752.664062 431.910156 752.664062 L 366.492188 752.664062 C 361.605469 752.664062 357.632812 748.6875 357.632812 743.800781 L 357.632812 726.441406 C 357.632812 721.554688 361.605469 717.578125 366.492188 717.578125 L 431.910156 717.578125 C 436.796875 717.578125 440.773438 721.554688 440.773438 726.441406 Z M 457.542969 784.269531 L 469.8125 796.539062 C 473.253906 799.984375 473.265625 805.628906 469.8125 809.082031 L 423.558594 855.335938 C 420.117188 858.777344 414.480469 858.777344 411.027344 855.324219 L 398.757812 843.054688 C 395.304688 839.597656 395.304688 833.964844 398.746094 830.523438 L 445 784.269531 C 448.441406 780.828125 454.085938 780.816406 457.542969 784.269531 Z M 510.304688 813.308594 L 527.664062 813.308594 C 532.546875 813.308594 536.523438 817.285156 536.523438 822.171875 L 536.523438 887.589844 C 536.523438 892.472656 532.546875 896.449219 527.664062 896.449219 L 510.304688 896.449219 C 505.417969 896.449219 501.441406 892.472656 501.441406 887.589844 L 501.441406 822.171875 C 501.441406 817.285156 505.417969 813.308594 510.304688 813.308594 Z M 568.132812 796.539062 L 580.402344 784.269531 C 583.84375 780.828125 589.492188 780.816406 592.945312 784.269531 L 639.195312 830.523438 C 642.636719 833.964844 642.636719 839.597656 639.183594 843.054688 L 626.914062 855.324219 C 623.460938 858.777344 617.824219 858.777344 614.382812 855.335938 L 568.132812 809.082031 C 564.675781 805.628906 564.675781 799.992188 568.132812 796.539062 Z M 680.300781 726.429688 L 680.300781 743.789062 C 680.300781 748.675781 676.324219 752.652344 671.4375 752.652344 L 606.019531 752.652344 C 601.136719 752.652344 597.160156 748.675781 597.160156 743.789062 L 597.160156 726.429688 C 597.160156 721.542969 601.136719 717.570312 606.019531 717.570312 L 671.4375 717.570312 C 676.324219 717.570312 680.300781 721.542969 680.300781 726.429688 Z M 626.902344 614.886719 L 639.171875 627.15625 C 642.617188 630.597656 642.625 636.246094 639.183594 639.6875 L 592.933594 685.9375 C 589.480469 689.390625 583.84375 689.394531 580.390625 685.9375 L 568.121094 673.667969 C 564.667969 670.214844 564.667969 664.578125 568.121094 661.125 L 614.371094 614.875 C 617.8125 611.433594 623.449219 611.433594 626.902344 614.886719 Z M 626.902344 614.886719 " fill-opacity="1" fill-rule="evenodd"/></g></g></g></svg>